<?xml version="1.0" encoding="UTF-8"?>
<svg id="Layer_1" data-name="Layer 1" xmlns="http://www.w3.org/2000/svg" version="1.1" viewBox="0 0 595.3 841.9">
  <defs>
    <style>
      .cls-1 {
        fill: #000;
      }

      .cls-1, .cls-2 {
        stroke-width: 0px;
      }

      .cls-2 {
        display: none;
        fill: #fff;
      }
    </style>
  </defs>
  <path class="cls-2" d="M330.6,166.8h137v418H145.6V166.8h162c-2.5.7-5,1.7-7.6,2-14.3,1.6-28.2,4.5-41.3,10.7-10.2,4.8-10.2,4.7-8.5,16,0,.3-.2.6-.3.9-8.8,3.6-9.6,3.3-17-2.6-1.5-1.2-5.1-1.9-6.5-.9-13.4,8.6-26.7,17.5-39.8,26.6-3.8,2.6-4.8,6.5-3.2,11.1,2.6,7.8.7,14.8-2.9,22-6,12.1-11.4,24.6-16.7,37.1-1.2,2.9-1.4,6.7-.8,9.7,3.9,18.1,9,35.7,18.3,51.9.9,1.5,2.2,2.8,4,5.1.5-9.3,1-17.1,1.4-24.9.4-9,1-9.5,10-9.3.5,0,1,0,1.5,0,10-.1,20,.1,29.9-.6,7.9-.6,15.9-2,23.6-3.8,8.1-1.9,10.4-7.6,7-15.1-2.7-5.8-5.3-11.6-8.4-18.4,5.4,1.1,9.8,2.1,14.2,2.9,5.5,1,9-1.4,10.2-6.9.5-2.6.5-5.3.9-7.9,1.1-6,4.2-7.6,9.6-4.7,3.1,1.7,6,4.1,9.1,6.4,3.3-4.7,6.5-9.4,9.9-13.9,3.3-4.5,5.2-4.4,8,.5,2,3.5,3.6,7.1,5.1,10.8,2.4,5.7,3.3,6.1,9.4,5,5.2-.9,10.4-1.4,16.3-2.2-1.9,11-2.5,21.3-7.9,30.5-1.7,2.8-2.5,5.8,1.7,7.2,9.5,3.1,18.8,6.9,28.5,8.7,11.9,2.1,24.1,2.6,36.2,3.5,4.2.3,7.1,1.5,8.3,6.1,1,3.8,2.7,7.5,4.7,11,1,1.9,3.1,3.9,5,4.3,1.1.2,3.5-2.5,4.2-4.3,4.9-13.5,7.3-27.5,6.9-42,0-3.1.7-6.3.7-9.4,0-7,3.8-13.3-.5-21.3-5.7-10.6-9.9-22-17.7-31.5-2.6-3.1-3-6.7-.8-10.7.9-1.6.5-4.5-.2-6.5-4.8-12.7-14.1-21.9-24.1-30.6-7.2-6.2-14.3-11.2-24.6-11.5-6.1-.2-11.3-1.1-14.1,6.8-2.7-2.4-5.8-3.9-6.5-6.1-2-6.3-6.8-9-12.1-11.5h0ZM308.4,378.3v-.2c-1.8,0-3.7,0-5.5,0-32.5.2-64.9.5-97.4.8-10.7.1-12.2,2-10.8,12.5.2,1.8.6,3.6,1.2,5.3,6.5,17.6,13.3,35.1,19.4,52.8,1.9,5.5,5.4,6.9,10.1,6.9,16.5.2,32.9.1,49.4.5,5.7.1,8.9-1.9,10.8-7.3,2.9-8.1,6.5-16,9.9-23.9,2-4.6,5.6-6.7,10.5-7.1,5-.4,8.9.4,11.5,5.5,3.6,6.9,7.7,13.6,11.8,20.2,3.5,5.6,8.6,9.5,15.4,9.8,16.3.7,32.6,1.2,48.9,1.4,4.2,0,9.4,0,10.6-5.5,4.9-21,9.7-42.1,14.2-63.2,1.4-6.7-.3-8.3-7.2-8.4-7.3-.1-14.6-.2-22-.2-27,0-54,0-80.9,0h0ZM297.4,361.9c.8,0,1.5,0,2.3.1,1.8-4.7,3.6-9.4,5.3-14.2,1.8-4.9,3-5.3,7.6-2.7,3,1.7,6.1,3.3,9.2,4.9.5-.4,1.1-.8,1.6-1.3-1.7-6.8-3.5-13.5-5.2-20.4,5.5.9,10.8,1.8,16.1,2.7.3-.7.6-1.4,1-2.1-3.9-4.4-7.5-9.1-11.8-13.2-4.3-4.2-4.6-5-.8-9.9,3.5-4.3,6.9-8.6,10.3-13-.4-.6-.7-1.2-1.1-1.8-6.7,1.9-13.4,3.8-20.3,5.8-1.4-6.9,2-14.8-4.9-21.4-4.1,7-7.8,13.5-11.9,20.5-4.3-6.6-7-13.6-14-17.5-.9,7.8-1.6,14.8-2.4,22.2-5-2.8-9.5-5.2-14-7.7-.6.5-1.1,1-1.7,1.5,1.8,4.7,3.2,9.6,5.6,13.9,4.4,7.8,4.1,14.3-3.4,19.9-1.8,1.4-3.3,3.3-4.6,5.2-.9,1.2-1.3,2.7-2,4.1.3.5.6.9.9,1.4,6.1-1.4,12.2-2.8,18.5-4.3-1.9,7.2-3.6,13.8-5.3,20.3.8.4,1.5.9,2.3,1.3,5.5-5.1,11-10.2,16.9-15.6,2,7.2,3.9,14.1,5.8,21.1h0Z"/>
  <path class="cls-1" d="M330.6,166.8c5.3,2.5,10.1,5.3,12.1,11.5.7,2.2,3.9,3.7,6.5,6.1,2.8-7.9,8-7,14.1-6.8,10.2.3,17.3,5.3,24.6,11.5,10.1,8.7,19.4,17.8,24.1,30.6.7,2,1.1,4.8.2,6.5-2.2,4-1.7,7.6.8,10.7,7.8,9.5,12,20.9,17.7,31.5,4.4,8,.5,14.3.5,21.3,0,3.1-.8,6.3-.7,9.4.4,14.5-2,28.4-6.9,42-.7,1.8-3,4.5-4.2,4.3-1.9-.4-3.9-2.4-5-4.3-2-3.5-3.6-7.2-4.7-11-1.2-4.5-4.1-5.8-8.3-6.1-12.1-1-24.3-1.4-36.2-3.5-9.7-1.8-19-5.6-28.5-8.7-4.2-1.4-3.4-4.4-1.7-7.2,5.4-9.1,6-19.4,7.9-30.5-5.9.8-11.1,1.3-16.3,2.2-6.1,1.1-7.1.7-9.4-5-1.5-3.7-3.2-7.3-5.1-10.8-2.8-4.9-4.7-5-8-.5-3.4,4.5-6.5,9.2-9.9,13.9-3.2-2.2-6-4.6-9.1-6.4-5.4-2.9-8.5-1.3-9.6,4.7-.5,2.6-.4,5.3-.9,7.9-1.1,5.5-4.6,7.9-10.2,6.9-4.4-.8-8.7-1.8-14.2-2.9,3.1,6.8,5.8,12.6,8.4,18.4,3.4,7.5,1.1,13.2-7,15.1-7.8,1.8-15.7,3.2-23.6,3.8-9.9.7-19.9.4-29.9.6-.5,0-1,0-1.5,0-9-.2-9.6.3-10,9.3-.4,7.8-.9,15.6-1.4,24.9-1.8-2.3-3.1-3.5-4-5.1-9.2-16.2-14.4-33.9-18.3-51.9-.7-3.1-.4-6.9.8-9.7,5.2-12.5,10.6-25,16.7-37.1,3.6-7.2,5.5-14.3,2.9-22-1.6-4.6-.6-8.5,3.2-11.1,13.1-9.1,26.4-18,39.8-26.6,1.4-.9,5-.3,6.5.9,7.5,5.9,8.2,6.2,17,2.6.1-.3.4-.6.3-.9-1.7-11.3-1.7-11.2,8.5-16,13.1-6.1,27-9.1,41.3-10.7,2.6-.3,5.1-1.3,7.6-2h23Z"/>
  <path class="cls-1" d="M308.4,378.3c27,0,54,0,80.9,0,7.3,0,14.6,0,22,.2,6.9.1,8.6,1.7,7.2,8.4-4.5,21.1-9.2,42.2-14.2,63.2-1.3,5.4-6.4,5.5-10.6,5.5-16.3-.2-32.6-.7-48.9-1.4-6.8-.3-11.9-4.1-15.4-9.8-4.1-6.6-8.2-13.3-11.8-20.2-2.6-5-6.5-5.9-11.5-5.5-5,.4-8.6,2.5-10.5,7.1-3.4,8-7,15.8-9.9,23.9-2,5.4-5.1,7.4-10.8,7.3-16.5-.4-32.9-.3-49.4-.5-4.7,0-8.2-1.5-10.1-6.9-6.1-17.7-12.9-35.2-19.4-52.8-.6-1.7-1-3.5-1.2-5.3-1.4-10.5,0-12.4,10.8-12.5,32.5-.3,64.9-.5,97.4-.8,1.8,0,3.7,0,5.5,0v.2h0Z"/>
  <path class="cls-1" d="M297.4,361.9c-1.9-6.9-3.8-13.9-5.8-21.1-5.9,5.4-11.4,10.5-16.9,15.6-.8-.4-1.5-.9-2.3-1.3,1.7-6.5,3.4-13.1,5.3-20.3-6.3,1.5-12.4,2.9-18.5,4.3-.3-.5-.6-.9-.9-1.4.6-1.4,1.1-2.9,2-4.1,1.4-1.9,2.8-3.8,4.6-5.2,7.5-5.6,7.8-12.1,3.4-19.9-2.4-4.3-3.8-9.3-5.6-13.9.6-.5,1.1-1,1.7-1.5,4.5,2.5,9,5,14,7.7.8-7.4,1.6-14.4,2.4-22.2,7,4,9.6,10.9,14,17.5,4.1-7,7.8-13.5,11.9-20.5,6.9,6.6,3.5,14.5,4.9,21.4,6.9-2,13.6-3.9,20.3-5.8.4.6.7,1.2,1.1,1.8-3.4,4.3-6.9,8.7-10.3,13-3.9,4.8-3.5,5.7.8,9.9,4.2,4.1,7.9,8.8,11.8,13.2-.3.7-.6,1.4-1,2.1-5.3-.9-10.6-1.8-16.1-2.7,1.8,6.8,3.5,13.6,5.2,20.4-.5.4-1.1.8-1.6,1.3-3.1-1.6-6.2-3.2-9.2-4.9-4.6-2.7-5.8-2.2-7.6,2.7-1.7,4.7-3.5,9.5-5.3,14.2-.8,0-1.5,0-2.3-.1h0Z"/>
</svg>